<svg xmlns="http://www.w3.org/2000/svg" viewBox="0 0 256 256">
  <style>
    .st0{fill:none;stroke:#00BBE6;stroke-width:6;stroke-miterlimit:10;} .st1{fill:#00BBE6;}
  </style>
  <circle cx="128" cy="128" r="124.2" class="st0"/>
  <path d="M72 162.2V100l.2-2.2 36.7 31.4-37 35.2c-.4-1-.5-1.7-.5-2.2zm4.7-68.8c.5-.2 1-.3 1.8-.3h99l2 .7-37 31.6-4.8 4-9.7 8-9.6-8-5-4-36.7-31.5zm.2 75.2l37-35.4 14 11.6 14.2-11.6 37 35.4-1.8.3h-99c-.7 0-1.3 0-1.8-.7zm70-39.4l36.5-31.4c.2.6.3 1.3.3 2v62.4c0 .6 0 1.4-.3 2l-36.6-35z" class="st1"/>
</svg>
