<?xml version="1.0" encoding="utf-8"?>
<!-- Generator: Adobe Illustrator 20.1.0, SVG Export Plug-In . SVG Version: 6.00 Build 0)  -->
<svg version="1.1" id="Layer_1" xmlns="http://www.w3.org/2000/svg" xmlns:xlink="http://www.w3.org/1999/xlink" x="0px" y="0px"
	 width="256px" height="256px" viewBox="0 0 256 256" style="enable-background:new 0 0 256 256;" xml:space="preserve">
<style type="text/css">
	.st0{fill:none;stroke:#00BBE6;stroke-width:6;stroke-miterlimit:10;}
	.st1{fill:#00BBE6;}
</style>
<g>
	<circle class="st0" cx="128" cy="128" r="124.2"/>
	<path class="st1" d="M71.9,162.2V99.9c0-0.1,0.1-0.8,0.3-2.1l36.7,31.4l-36.6,35.2C72,163.4,71.9,162.7,71.9,162.2L71.9,162.2z
		 M76.7,93.4c0.5-0.2,1.1-0.3,1.8-0.3h98.9c0.6,0,1.3,0.1,2,0.3L142.6,125l-4.9,3.9l-9.7,7.9l-9.6-7.9l-4.9-3.9L76.7,93.4z
		 M76.9,168.6l37-35.4l14.3,11.6l14.3-11.6l37,35.4c-0.6,0.2-1.2,0.3-1.8,0.3H78.6C78,168.9,77.4,168.9,76.9,168.6z M147.2,129.2
		l36.6-31.4c0.2,0.6,0.3,1.3,0.3,2.1v62.3c0,0.6-0.1,1.4-0.3,2.1L147.2,129.2z"/>
</g>
</svg>
