<svg xmlns="http://www.w3.org/2000/svg" width="256" height="256" viewBox="0 0 256 256"><style type="text/css">.st0{fill:none;stroke:#00BBE6;stroke-width:6;stroke-miterlimit:10;} .st1{fill:#00BBE6;}</style><circle class="st0" cx="128" cy="128" r="124.2"/><path class="st1" d="M71.9 162.2v-62.3c0-.1.1-.8.3-2.1l36.7 31.4-36.6 35.2c-.3-1-.4-1.7-.4-2.2zm4.8-68.8c.5-.2 1.1-.3 1.8-.3h98.9c.6 0 1.3.1 2 .3l-36.8 31.6-4.9 3.9-9.7 7.9-9.6-7.9-4.9-3.9-36.8-31.6zm.2 75.2l37-35.4 14.3 11.6 14.3-11.6 37 35.4c-.6.2-1.2.3-1.8.3h-99.1c-.6 0-1.2 0-1.7-.3zm70.3-39.4l36.6-31.4c.2.6.3 1.3.3 2.1v62.3c0 .6-.1 1.4-.3 2.1l-36.6-35.1z"/></svg>