<svg xmlns="http://www.w3.org/2000/svg" width="52" height="52" viewBox="0 0 52 52"><style type="text/css">.st0{fill:#00BBE6;} .st1{fill:#D3D5D6;} .st2{fill:#FFFFFF;}</style><circle class="st0" cx="26" cy="26" r="23.7"/><g id="XMLID_1_"><path class="st1" d="M32.6 10.1l10.9 16.2h-2.7l-8.2-12.1-4.8 7.1-1.4-2z"/><path class="st2" d="M43.5 26.3l-10.9 16.1-6.2-9.2-1.3-2-3.3-4.9h2.7l1.9 2.9 1.4 2 4.8 7.2 8.2-12.1zm-15.7-5l3.4 5h-2.8l-2-2.9-1.3-2.1-4.8-7.1-8.2 12.1h-2.7l10.9-16.2 6.1 9.2z"/><path class="st1" d="M31.2 26.3l-3.4 4.9-1.4-2 2-2.9zm-6.1-5l1.3 2.1-1.9 2.9h-2.7zm0 9.9l1.3 2-6.1 9.2-10.9-16.1h2.7l8.2 12.1z"/></g></svg>