<?xml version="1.0" encoding="utf-8"?>
<!-- Generator: Adobe Illustrator 20.1.0, SVG Export Plug-In . SVG Version: 6.00 Build 0)  -->
<svg version="1.1" id="Layer_1" xmlns="http://www.w3.org/2000/svg" xmlns:xlink="http://www.w3.org/1999/xlink" x="0px" y="0px"
	 width="52px" height="52px" viewBox="0 0 52 52" style="enable-background:new 0 0 52 52;" xml:space="preserve">
<style type="text/css">
	.st0{fill:#00BBE6;}
	.st1{fill:#D3D5D6;}
	.st2{fill:#FFFFFF;}
</style>
<circle class="st0" cx="26" cy="26" r="23.7"/>
<g id="XMLID_1_">
	<g>
		<polygon class="st1" points="32.6,10.1 43.5,26.3 40.8,26.3 32.6,14.2 27.8,21.3 26.4,19.3 		"/>
		<polygon class="st2" points="43.5,26.3 32.6,42.4 26.4,33.2 25.1,31.2 25.1,31.2 21.8,26.3 24.5,26.3 26.4,29.2 27.8,31.2 
			32.6,38.4 40.8,26.3 		"/>
		<polygon class="st2" points="27.8,21.3 31.2,26.3 28.4,26.3 26.4,23.4 25.1,21.3 25.1,21.3 20.3,14.2 12.1,26.3 9.4,26.3 
			20.3,10.1 26.4,19.3 		"/>
		<polygon class="st1" points="31.2,26.3 27.8,31.2 26.4,29.2 28.4,26.3 		"/>
		<polygon class="st1" points="25.1,21.3 26.4,23.4 24.5,26.3 21.8,26.3 		"/>
		<polygon class="st1" points="25.1,31.2 26.4,33.2 20.3,42.4 9.4,26.3 12.1,26.3 20.3,38.4 		"/>
	</g>
</g>
</svg>
