<?xml version="1.0" encoding="utf-8"?>
<!-- Generator: Adobe Illustrator 20.1.0, SVG Export Plug-In . SVG Version: 6.00 Build 0)  -->
<svg version="1.1" id="Layer_1" xmlns="http://www.w3.org/2000/svg" xmlns:xlink="http://www.w3.org/1999/xlink" x="0px" y="0px"
	 width="100px" height="100px" viewBox="0 0 100 100" style="enable-background:new 0 0 100 100;" xml:space="preserve">
<style type="text/css">
	.st0{fill:#00BBE6;}
	.st1{fill:#D3D5D6;}
	.st2{fill:#FFFFFF;}
</style>
<circle class="st0" cx="50" cy="50.1" r="47.9"/>
<g id="XMLID_1_">
	<g>
		<polygon class="st1" points="63.4,18 85.4,50.7 79.9,50.7 63.4,26.2 53.7,40.7 50.9,36.6 		"/>
		<polygon class="st2" points="85.4,50.7 63.4,83.3 50.9,64.7 48.2,60.6 48.2,60.6 41.5,50.7 47,50.7 50.9,56.6 53.7,60.6 
			63.4,75.2 79.9,50.7 		"/>
		<polygon class="st2" points="53.7,40.7 60.4,50.7 54.9,50.7 50.9,44.8 48.2,40.7 48.2,40.7 38.4,26.2 22,50.7 16.5,50.7 38.4,18 
			50.9,36.6 		"/>
		<polygon class="st1" points="60.4,50.7 53.7,60.6 50.9,56.6 54.9,50.7 		"/>
		<polygon class="st1" points="48.2,40.7 50.9,44.8 47,50.7 41.5,50.7 		"/>
		<polygon class="st1" points="48.2,60.6 50.9,64.7 38.4,83.3 16.5,50.7 22,50.7 38.4,75.2 		"/>
	</g>
	<g>
	</g>
</g>
<g>
</g>
<g>
</g>
<g>
</g>
<g>
</g>
<g>
</g>
<g>
</g>
<g>
</g>
<g>
</g>
<g>
</g>
<g>
</g>
<g>
</g>
<g>
</g>
<g>
</g>
<g>
</g>
<g>
</g>
</svg>
