<svg xmlns="http://www.w3.org/2000/svg" viewBox="0 0 52 52">
  <style>
    .st0{fill:#00BBE6;} .st1{fill:#D3D5D6;} .st2{fill:#FFFFFF;}
  </style>
  <circle cx="26" cy="26" r="23.7" class="st0"/>
  <g id="XMLID_1_">
    <path d="M32.6 10l11 16.3h-2.8l-8.2-12-4.8 7-1.4-2z" class="st1"/>
    <path d="M43.5 26.3l-11 16-6-9-1.4-2-3-5h2.7l2 3 1.3 2 4.7 7 8.2-12zm-15.7-5l3.4 5h-2.8l-2-3-1.3-2-4.5-7-8.2 12H9.5l11-16.2 6 9.5z" class="st2"/>
    <path d="M31.2 26.3l-3.4 5-1.4-2 2-3zm-6-5l1.2 2-2 3H22zm0 10l1.2 2-6 9-11-16H12l8.3 12z" class="st1"/>
  </g>
</svg>
