<svg xmlns="http://www.w3.org/2000/svg" viewBox="0 0 256 256"><style>.st0{fill:none;stroke:#00BBE6;stroke-width:6;stroke-miterlimit:10;} .st1{fill:#00BBE6;}</style><circle cx="128" cy="128" r="124.2" class="st0"/><path d="M93.5 118v-16c4.5-1.5 8.3-3.5 11.3-6.2 3-2.5 5.6-5.7 7.5-9.6 2-3.8 3.2-8.6 4-14.2h16v28.3h26.4v17.7h-26.5v28.6c0 6.4.4 10.6 1 12.6.6 1.8 2 3.2 3.8 4.3 2.5 1.5 5.4 2.2 8.5 2.2 5.8 0 11.4-1.8 17-5.5v17.6c-4.8 2.3-9 4-13 4.8-4 1-8 1.3-12.7 1.3-5 0-9.6-.8-13.7-2-4-1.5-7.3-3.4-10-5.7-2.5-2.3-4.4-5-5.6-7.6-1-2.5-1.6-6.5-1.6-11.7v-39h-12.4z" class="st1"/></svg>