<?xml version="1.0" encoding="utf-8"?>
<!-- Generator: Adobe Illustrator 20.1.0, SVG Export Plug-In . SVG Version: 6.00 Build 0)  -->
<svg version="1.1" id="Layer_1" xmlns="http://www.w3.org/2000/svg" xmlns:xlink="http://www.w3.org/1999/xlink" x="0px" y="0px"
	 width="256px" height="256px" viewBox="0 0 256 256" style="enable-background:new 0 0 256 256;" xml:space="preserve">
<style type="text/css">
	.st0{fill:none;stroke:#00BBE6;stroke-width:6;stroke-miterlimit:10;}
	.st1{fill:#00BBE6;}
</style>
<circle class="st0" cx="128" cy="128" r="124.2"/>
<path class="st1" d="M93.5,117.9V102c4.5-1.5,8.3-3.5,11.3-6.2c3.1-2.5,5.6-5.7,7.5-9.6c1.9-3.8,3.2-8.6,3.9-14.2h16v28.3h26.5v17.6
	h-26.5v28.7c0,6.4,0.4,10.6,1,12.6c0.6,1.8,1.9,3.2,3.8,4.3c2.5,1.5,5.4,2.2,8.5,2.2c5.8,0,11.4-1.8,16.9-5.5v17.6
	c-4.7,2.3-9,3.9-13,4.8c-3.9,0.9-8,1.3-12.6,1.3c-5.1,0-9.6-0.6-13.7-1.9c-4.1-1.4-7.5-3.3-10-5.6c-2.7-2.3-4.6-4.9-5.8-7.6
	c-1.1-2.5-1.6-6.5-1.6-11.7v-39.3L93.5,117.9L93.5,117.9z"/>
</svg>
