<svg xmlns="http://www.w3.org/2000/svg" width="256" height="256" viewBox="0 0 256 256"><style type="text/css">.st0{fill:none;stroke:#00BBE6;stroke-width:6;stroke-miterlimit:10;} .st1{fill:#00BBE6;}</style><circle class="st0" cx="128" cy="128" r="124.2"/><path class="st1" d="M93.5 117.9v-15.9c4.5-1.5 8.3-3.5 11.3-6.2 3.1-2.5 5.6-5.7 7.5-9.6 1.9-3.8 3.2-8.6 3.9-14.2h16v28.3h26.5v17.6h-26.5v28.7c0 6.4.4 10.6 1 12.6.6 1.8 1.9 3.2 3.8 4.3 2.5 1.5 5.4 2.2 8.5 2.2 5.8 0 11.4-1.8 16.9-5.5v17.6c-4.7 2.3-9 3.9-13 4.8-3.9.9-8 1.3-12.6 1.3-5.1 0-9.6-.6-13.7-1.9-4.1-1.4-7.5-3.3-10-5.6-2.7-2.3-4.6-4.9-5.8-7.6-1.1-2.5-1.6-6.5-1.6-11.7v-39.3l-12.2.1z"/></svg>